<svg width="52" height="52" viewBox="0 0 52 52" fill="none" xmlns="http://www.w3.org/2000/svg">
<path fill-rule="evenodd" clip-rule="evenodd" d="M44.2175 7.44922C39.5264 2.8418 33.095 0 26 0C11.6406 0 0 11.6406 0 26C0 31.6953 1.8313 36.9629 4.93701 41.2461C8.83423 38.8706 13.5325 35.8604 18.3704 32.4219C24.4241 28.1201 30.6174 23.2041 35.72 18.0791C39.3286 14.4546 42.2471 10.8677 44.2175 7.44922ZM49.2769 14.4028C47.0461 17.6489 44.322 20.7778 41.3894 23.7236C35.8513 29.2861 29.2634 34.4951 23.0046 38.9434C18.6526 42.0361 14.4211 44.7876 10.7524 47.062C15.0359 50.1685 20.304 52 26 52C40.3594 52 52 40.3594 52 26C52 21.8325 51.0195 17.894 49.2769 14.4028Z" fill="black"/>
</svg>
